<svg id="Capa_1" enable-background="new 0 0 512.003 512.003" height="512" viewBox="0 0 512.003 512.003" width="512" xmlns="http://www.w3.org/2000/svg"><path d="m462.735 387.169-27.781-333.385c-1.156-13.852-6.666-26.981-15.517-36.972-9.605-10.84-22-16.81-34.9-16.81h-32.135c-8.283 0-15 6.716-15 15s6.717 15 15 15h32.135c8.67 0 19.23 10.791 20.522 26.275l22.237 266.864c-55.648 9.399-98.537 54.522-105.091 110.661h-132.413c-7.448-63.241-61.379-112.467-126.59-112.467-19.109 0-37.492 4.13-54.635 12.273-7.483 3.555-10.667 12.503-7.112 19.985 3.554 7.482 12.502 10.666 19.985 7.112 13.089-6.218 27.14-9.371 41.762-9.371 48.645 0 89.076 35.819 96.312 82.467h-34.926c-6.753-27.629-31.706-48.199-61.387-48.199-34.848 0-63.198 28.351-63.198 63.199 0 34.849 28.35 63.199 63.198 63.199 29.681 0 54.634-20.57 61.387-48.199h211.746c8.285 0 15-6.716 15-15 0-47.254 33.465-86.797 78.463-95.628l2.877 34.522c-27.061 7.147-47.072 31.83-47.072 61.105 0 34.849 28.352 63.199 63.199 63.199 34.85 0 63.201-28.351 63.201-63.199.001-30.058-21.102-55.266-49.267-61.631z"/></svg>