<svg height="512pt" viewBox="0 0 512 512" width="512pt" xmlns="http://www.w3.org/2000/svg"><path d="m502.753906 232.851562-38.203125-41.539062c-6.613281-7.191406-16.003906-11.3125-25.773437-11.3125h-136.261719v-145c0-19.300781-15.707031-35-35.011719-35h-20.007812c-19.308594 0-35.011719 15.699219-35.011719 35v25h-139.65625c-9.332031 0-18.433594 3.816406-24.972656 10.46875l-37.808594 38.457031c-13.078125 13.308594-13.433594 34.488281-.800781 48.222657l38.203125 41.539062c6.609375 7.191406 16.003906 11.3125 25.773437 11.3125h139.261719v267c0 19.300781 15.707031 35 35.011719 35h20.007812c19.304688 0 35.011719-15.699219 35.011719-35v-147h136.65625c9.332031 0 18.433594-3.816406 24.972656-10.46875l37.808594-38.457031c13.078125-13.308594 13.429687-34.488281.800781-48.222657zm-291.269531-52.851562h-138.261719c-1.394531 0-2.738281-.589844-3.683594-1.617188l-38.203124-41.539062c-1.800782-1.960938-1.753907-4.988281.117187-6.890625l37.804687-38.457031c.9375-.949219 2.238282-1.496094 3.570313-1.496094h138.65625zm56.019531 302h-20.007812c-2.757813 0-5-2.242188-5-5v-442c0-2.757812 2.242187-5 5-5h20.007812c2.757813 0 5 2.242188 5 5v442c0 2.757812-2.242187 5-5 5zm213.042969-221.953125-37.808594 38.457031c-.933593.949219-2.234375 1.496094-3.566406 1.496094h-136.65625v-90h136.261719c1.394531 0 2.738281.589844 3.683594 1.617188l38.203124 41.539062c1.800782 1.960938 1.753907 4.988281-.117187 6.890625zm0 0"/></svg>